<svg width="140" height="34" viewBox="0 0 140 34" fill="none" xmlns="http://www.w3.org/2000/svg">
<path fill-rule="evenodd" clip-rule="evenodd" d="M14.4169 0.863076C14.5465 0.788889 14.6932 0.75 14.8423 0.75C14.991 0.75 15.1374 0.78871 15.2668 0.862564C15.2671 0.862734 15.2674 0.862905 15.2677 0.863076L28.4952 8.38471C28.6237 8.45827 28.7312 8.56413 28.8066 8.69223C28.882 8.82036 28.9225 8.96612 28.9239 9.11505L28.9239 9.11954L28.9239 24.3554C28.9225 24.5043 28.882 24.6501 28.8066 24.7782C28.7312 24.9063 28.6237 25.0121 28.4952 25.0857L28.494 25.0864L15.3032 32.5872C15.1927 32.6721 15.063 32.7288 14.9256 32.7522C14.7947 32.7811 14.6587 32.7788 14.5286 32.7455L14.4637 32.7289L1.17797 25.1741L1.17405 25.1719C1.01472 25.0794 0.889155 24.9376 0.817058 24.7672C0.754833 24.6201 0.735552 24.4589 0.760727 24.3022V9.2028C0.762065 9.05386 0.802621 8.90811 0.878017 8.77998C0.953276 8.65208 1.06054 8.54636 1.18881 8.47282C1.18901 8.4727 1.1886 8.47293 1.18881 8.47282L14.4169 0.863076ZM2.45625 9.69798L14.8297 2.62511L27.2031 9.69798V23.8604L14.8297 30.9454L2.45625 23.8604V9.69798Z" fill="#21CDB0"/>
<path fill-rule="evenodd" clip-rule="evenodd" d="M5.73702 11.9277L5.63206 12.4166C5.47979 12.3839 5.33901 12.3102 5.22528 12.2031C5.11152 12.096 5.0292 11.9594 4.98787 11.8082C4.94655 11.6569 4.94796 11.4972 4.99195 11.3467C5.03594 11.1962 5.12065 11.0612 5.23625 10.956L5.27649 10.9195L10.1635 8.11333C10.2503 8.05005 10.3483 8.00368 10.4524 7.97664C10.573 7.94529 10.699 7.94064 10.8216 7.963C10.9442 7.98535 11.0607 8.03421 11.1626 8.10637C11.2645 8.17854 11.3496 8.27231 11.4114 8.38127C11.4732 8.49023 11.5102 8.6116 11.5196 8.73676C11.529 8.86191 11.5105 8.98749 11.4655 9.10454C11.4205 9.22157 11.3502 9.327 11.2599 9.41351C11.1833 9.48689 11.0939 9.54515 10.9965 9.58562L6.16376 12.3108C6.03637 12.3852 5.89193 12.4254 5.74459 12.4276L5.73702 11.9277Z" fill="#21CDB0"/>
<path fill-rule="evenodd" clip-rule="evenodd" d="M10.3758 18.8985C10.1928 18.7794 9.97117 18.734 9.75583 18.7714C9.64472 18.7906 9.53832 18.8314 9.44273 18.8916C9.34714 18.9518 9.26415 19.0303 9.19868 19.1227C9.13321 19.2152 9.08659 19.3197 9.06168 19.4305C9.03676 19.5412 9.03409 19.6558 9.05382 19.7675C9.0937 19.9934 9.22225 20.1932 9.40959 20.3235L9.42588 20.3349L14.4606 23.276L14.5284 23.2934C14.6431 23.3227 14.7624 23.3279 14.8787 23.309H14.8926L14.9 23.309C15.0846 23.3062 15.2637 23.244 15.4103 23.1309C15.5569 23.0178 15.6631 22.8598 15.7118 22.6803C15.7606 22.5008 15.7489 22.3104 15.6789 22.1382C15.6088 21.9661 15.4845 21.8222 15.3255 21.7275L10.3758 18.8985Z" fill="#21CDB0"/>
<path fill-rule="evenodd" clip-rule="evenodd" d="M9.73627 23.4742C9.84633 23.4507 9.95994 23.4489 10.0707 23.469C10.1772 23.4883 10.2792 23.5274 10.3713 23.5845L15.3115 26.4601L15.3263 26.4702C15.4723 26.5699 15.5842 26.7126 15.6455 26.8792C15.7069 27.0458 15.7144 27.2275 15.667 27.3987C15.6196 27.5698 15.5198 27.7214 15.3824 27.8327C15.265 27.9277 15.1251 27.9896 14.9771 28.0129L14.9701 28.0152L14.9535 28.0195C14.8141 28.0551 14.6679 28.0551 14.5285 28.0195L14.4592 28.0017L9.45831 25.0399L9.45098 25.0353C9.35603 24.9745 9.27381 24.8955 9.20917 24.8028C9.14453 24.7101 9.09879 24.6054 9.07476 24.4947C9.05074 24.384 9.04893 24.2697 9.06947 24.1583C9.09 24.0469 9.13243 23.9408 9.19415 23.8461C9.25587 23.7513 9.33561 23.6699 9.42864 23.6061C9.52166 23.5424 9.6262 23.4976 9.73627 23.4742Z" fill="#21CDB0"/>
<path fill-rule="evenodd" clip-rule="evenodd" d="M9.87239 29.1523L9.88979 29.652C10.1045 29.6445 10.3092 29.5566 10.4623 29.4048C10.6156 29.2528 10.7058 29.048 10.7135 28.8315L10.7138 28.8226V14.0486L10.7047 14.0016C10.667 13.8062 10.5619 13.6308 10.4086 13.5052C10.2554 13.3797 10.0635 13.3115 9.86607 13.3115C9.66861 13.3115 9.47675 13.3797 9.32356 13.5052C9.17028 13.6308 9.06515 13.8062 9.02739 14.0016L9.01831 14.0486V28.8013C9.01831 29.0284 9.10936 29.2453 9.27001 29.4045C9.43051 29.5637 9.64727 29.6523 9.87239 29.6523V29.1523Z" fill="#21CDB0"/>
<path fill-rule="evenodd" clip-rule="evenodd" d="M5.18831 10.9854C5.3415 10.8599 5.53336 10.7917 5.73082 10.7917C5.92827 10.7917 6.12013 10.8599 6.27332 10.9854C6.42661 11.111 6.53173 11.2864 6.56949 11.4818L6.57857 11.5288V26.7542L6.57826 26.763C6.57059 26.9796 6.48038 27.1843 6.32709 27.3363C6.17393 27.4881 5.96924 27.576 5.75454 27.5835L5.73714 27.0838V27.5838C5.51202 27.5838 5.29525 27.4952 5.13475 27.3361C4.97411 27.1768 4.88306 26.9599 4.88306 26.7328V11.5288L4.89214 11.4818C4.9299 11.2864 5.03502 11.111 5.18831 10.9854Z" fill="#21CDB0"/>
<path fill-rule="evenodd" clip-rule="evenodd" d="M14.4654 10.3733C14.6518 10.2981 14.8588 10.2909 15.0499 10.3528C15.2412 10.4147 15.4051 10.5421 15.5118 10.7136C15.6186 10.8851 15.6608 11.0892 15.6304 11.2894C15.6 11.4895 15.4992 11.6716 15.347 11.8038L15.3147 11.8318L10.3739 14.8236C10.2024 14.9294 9.99906 14.9712 9.79997 14.9421L9.7987 14.9419C9.63751 14.9179 9.48619 14.8484 9.36292 14.741C9.23962 14.6336 9.14955 14.4928 9.1041 14.3352C9.05865 14.1775 9.05992 14.01 9.10776 13.853C9.15559 13.6961 9.24777 13.5567 9.37266 13.4512L9.40287 13.4256L14.4282 10.3883L14.4654 10.3733Z" fill="#21CDB0"/>
<path fill-rule="evenodd" clip-rule="evenodd" d="M5.73702 11.9277L5.63206 12.4166C5.47979 12.3839 5.33901 12.3102 5.22528 12.2031C5.11152 12.096 5.0292 11.9594 4.98787 11.8082C4.94655 11.6569 4.94796 11.4972 4.99195 11.3467C5.03594 11.1962 5.12065 11.0612 5.23625 10.956L5.27649 10.9195L10.1635 8.11333C10.2503 8.05005 10.3483 8.00368 10.4524 7.97664C10.573 7.94529 10.699 7.94064 10.8216 7.963C10.9442 7.98535 11.0607 8.03421 11.1626 8.10637C11.2645 8.17854 11.3496 8.27231 11.4114 8.38127C11.4732 8.49023 11.5102 8.6116 11.5196 8.73676C11.529 8.86191 11.5105 8.98749 11.4655 9.10454C11.4205 9.22157 11.3502 9.327 11.2599 9.41351C11.1833 9.48689 11.0939 9.54515 10.9965 9.58562L6.16376 12.3108C6.03637 12.3852 5.89193 12.4254 5.74459 12.4276L5.73702 11.9277Z" fill="#21CDB0"/>
<path fill-rule="evenodd" clip-rule="evenodd" d="M19.2866 14.6754V14.8044L19.7939 14.7969C19.9785 14.7942 20.1576 14.7319 20.3042 14.6189C20.4508 14.5057 20.557 14.3477 20.6057 14.1683C20.6545 13.9888 20.6428 13.7984 20.5728 13.6262C20.5027 13.4541 20.3784 13.3101 20.2194 13.2155L7.21165 5.76249L7.18414 5.75083C6.99339 5.66998 6.7797 5.66104 6.58291 5.72554C6.38604 5.79007 6.21863 5.92405 6.11303 6.10349C6.00737 6.28306 5.97129 6.49524 6.01213 6.6999C6.05296 6.9045 6.16758 7.08625 6.33317 7.21159L6.35821 7.23054L19.2866 14.6754Z" fill="#21CDB0"/>
<path fill-rule="evenodd" clip-rule="evenodd" d="M23.4219 12.3435V12.4852L23.9293 12.4777C24.1138 12.475 24.2929 12.4127 24.4395 12.2997C24.5861 12.1866 24.6923 12.0285 24.741 11.8491C24.7898 11.6696 24.7782 11.4792 24.7081 11.307C24.638 11.1349 24.5137 10.9909 24.3547 10.8963L11.082 3.24299L11.0539 3.23105C10.8631 3.1502 10.6495 3.14126 10.4527 3.20577C10.2558 3.2703 10.0884 3.40427 9.98279 3.58372C9.87713 3.76328 9.84104 3.97547 9.88188 4.18013C9.92271 4.38473 10.0373 4.56648 10.2029 4.69182L10.2276 4.71046L23.4219 12.3435Z" fill="#21CDB0"/>
<path fill-rule="evenodd" clip-rule="evenodd" d="M19.2504 13.5052C19.4036 13.3797 19.5955 13.3115 19.7929 13.3115C19.9904 13.3115 20.1823 13.3797 20.3355 13.5052C20.4887 13.6308 20.5939 13.8062 20.6316 14.0016L20.6407 14.0486L20.6407 19.612C20.6408 19.8338 20.554 20.0464 20.3999 20.2048C20.2459 20.3631 20.0368 20.4552 19.817 20.463L19.8081 20.4633H19.7993C19.5742 20.4633 19.3574 20.3747 19.1969 20.2156C19.0362 20.0563 18.9452 19.8394 18.9452 19.6123V14.0486L18.9543 14.0016C18.992 13.8062 19.0972 13.6308 19.2504 13.5052ZM19.6407 19.6126C19.6407 19.6127 19.6407 19.6125 19.6407 19.6126Z" fill="#21CDB0"/>
<path fill-rule="evenodd" clip-rule="evenodd" d="M23.3729 11.0105C23.5261 10.885 23.7179 10.8168 23.9154 10.8168C24.1128 10.8168 24.3047 10.885 24.4579 11.0105C24.6112 11.1361 24.7163 11.3115 24.7541 11.5069L24.7631 11.5539V17.1645C24.773 17.2699 24.7629 17.3763 24.7335 17.4782C24.7 17.5943 24.6422 17.7017 24.5641 17.7935C24.486 17.8853 24.3894 17.9593 24.2809 18.011C24.1724 18.0626 24.0543 18.0908 23.9343 18.0938L23.9217 18.0941C23.6966 18.0941 23.4798 18.0054 23.3193 17.8463C23.1587 17.687 23.0676 17.4701 23.0676 17.243V11.5539L23.0767 11.5069C23.1145 11.3115 23.2196 11.1361 23.3729 11.0105Z" fill="#21CDB0"/>
<path fill-rule="evenodd" clip-rule="evenodd" d="M27.4446 14.2629C27.6353 14.182 27.849 14.1731 28.0458 14.2376C28.2427 14.3021 28.4101 14.4361 28.5157 14.6155C28.6213 14.7951 28.6574 15.0073 28.6166 15.2119C28.5758 15.4165 28.4611 15.5983 28.2956 15.7236L28.27 15.743L15.2579 23.1911C15.1301 23.2662 14.9851 23.3067 14.8371 23.3089L14.8296 23.309L14.8221 23.3089C14.6376 23.3062 14.4585 23.244 14.3119 23.1309C14.1653 23.0178 14.0591 22.8598 14.0104 22.6803C13.9616 22.5008 13.9732 22.3104 14.0433 22.1382C14.1134 21.9661 14.2377 21.8221 14.3967 21.7275L14.4041 21.7231L27.4172 14.2745L27.4446 14.2629Z" fill="#21CDB0"/>
<path fill-rule="evenodd" clip-rule="evenodd" d="M14.8295 27.535L14.8221 28.035C14.6376 28.0323 14.4584 27.97 14.3119 27.8569C14.1653 27.7438 14.0591 27.5858 14.0104 27.4064C13.9616 27.2269 13.9732 27.0365 14.0433 26.8643C14.1134 26.6921 14.2377 26.5482 14.3967 26.4536L14.4055 26.4483L27.6708 18.9125L27.6975 18.9012C27.8883 18.8203 28.1019 18.8114 28.2987 18.8759C28.4956 18.9404 28.663 19.0744 28.7686 19.2538C28.8743 19.4334 28.9103 19.6456 28.8695 19.8502C28.8287 20.0548 28.7141 20.2366 28.5485 20.3619L28.5223 20.3818L15.2571 27.9176C15.1295 27.9924 14.9848 28.0327 14.8371 28.035L14.8295 27.535Z" fill="#21CDB0"/>
<path d="M56.1393 17.2171C56.2656 19.9789 55.294 22.6796 53.4331 24.7387C52.5051 25.6993 51.3808 26.4524 50.1356 26.9475C48.8903 27.4426 47.5527 27.6683 46.2123 27.6095C44.8646 27.6763 43.5181 27.4557 42.2637 26.9627C41.0094 26.4696 39.8763 25.7155 38.941 24.7513C37.0858 22.6895 36.119 19.9895 36.2474 17.2296C36.121 14.4678 37.0927 11.7671 38.9536 9.70796C39.8821 8.748 41.0064 7.99538 42.2516 7.50034C43.4967 7.0053 44.8341 6.77923 46.1744 6.8372C47.5148 6.77502 48.8532 6.99665 50.1004 7.48733C51.3477 7.97801 52.4751 8.72648 53.4078 9.68289C55.2786 11.7427 56.2594 14.448 56.1393 17.2171ZM42.6083 12.7417C41.6603 14.0523 41.1919 15.6444 41.2805 17.2547C41.1908 18.8651 41.6594 20.4575 42.6083 21.7677C43.0498 22.2895 43.6013 22.709 44.2239 22.9969C44.8466 23.2848 45.5253 23.434 46.2123 23.434C46.8993 23.434 47.578 23.2848 48.2007 22.9969C48.8233 22.709 49.3748 22.2895 49.8164 21.7677C50.7643 20.4571 51.2328 18.865 51.1442 17.2547C51.2328 15.6444 50.7643 14.0523 49.8164 12.7417C49.3748 12.2199 48.8233 11.8003 48.2007 11.5124C47.578 11.2246 46.8993 11.0754 46.2123 11.0754C45.5253 11.0754 44.8466 11.2246 44.2239 11.5124C43.6013 11.8003 43.0498 12.2199 42.6083 12.7417V12.7417Z" fill="#00447F"/>
<path d="M63.5876 32.9999H59.1742V12.165H63.6002V14.5092C64.0728 13.7172 64.7522 13.0663 65.5668 12.625C66.3814 12.1838 67.3009 11.9685 68.2286 12.002C69.1302 11.9691 70.0277 12.1393 70.8534 12.4997C71.6791 12.8601 72.4117 13.4015 72.996 14.083C74.2668 15.6892 74.905 17.6986 74.7917 19.7367C74.8812 21.7465 74.2792 23.7267 73.0846 25.3529C72.5178 26.0796 71.7831 26.6605 70.9423 27.0467C70.1016 27.4328 69.1795 27.6129 68.2539 27.5718C67.332 27.6238 66.4133 27.4247 65.5974 26.996C64.7815 26.5673 64.0996 25.9254 63.6255 25.1398L63.5876 32.9999ZM63.5876 19.6114C63.5217 20.7458 63.867 21.8663 64.5613 22.7705C64.8602 23.1488 65.2452 23.4516 65.6848 23.6543C66.1243 23.8569 66.606 23.9535 67.0905 23.9363C67.5409 23.9329 67.9844 23.8259 68.386 23.6235C68.7876 23.4212 69.1363 23.1292 69.4046 22.7705C70.052 21.9127 70.3743 20.8565 70.3151 19.7869C70.395 18.6664 70.0675 17.5547 69.392 16.6529C69.1069 16.3103 68.747 16.0365 68.3396 15.8519C67.9321 15.6673 67.4877 15.5768 67.0399 15.5873C66.5835 15.5854 66.1318 15.6782 65.7136 15.8595C65.2955 16.0408 64.9202 16.3068 64.6119 16.6403C64.2502 17.043 63.9733 17.5132 63.7974 18.0234C63.6215 18.5336 63.5502 19.0735 63.5876 19.6114V19.6114Z" fill="#00447F"/>
<path d="M86.6408 27.0579C85.6751 27.4132 84.6478 27.5751 83.6185 27.5342C80.1283 27.5342 78.3831 25.8042 78.3831 22.3443V15.3868H76.1575V12.165H78.3705V8.56714H82.7965V12.165H86.3626V15.3742H82.7965V22.3694C82.7764 22.5996 82.808 22.8314 82.8889 23.0481C82.9698 23.2648 83.098 23.4611 83.2644 23.623C83.6006 23.9002 84.0289 24.0432 84.4658 24.0241C85.2263 24.0367 85.9739 23.8274 86.6155 23.4224L86.6408 27.0579Z" fill="#00447F"/>
<path d="M93.5455 5.95964C93.7829 6.19036 93.9722 6.46524 94.1024 6.76854C94.2326 7.07184 94.3011 7.39762 94.3042 7.72723C94.3062 8.06317 94.24 8.39608 94.1097 8.70618C93.9794 9.01629 93.7875 9.29727 93.5455 9.53242C93.3097 9.77315 93.0276 9.96452 92.7159 10.0952C92.4042 10.2259 92.0692 10.2932 91.7308 10.2932C91.3923 10.2932 91.0573 10.2259 90.7456 10.0952C90.4339 9.96452 90.1518 9.77315 89.9161 9.53242C89.6741 9.29727 89.4822 9.01629 89.3519 8.70618C89.2215 8.39608 89.1554 8.06317 89.1574 7.72723C89.1351 7.21375 89.2726 6.70589 89.5511 6.27243C89.8297 5.83897 90.2359 5.50084 90.7148 5.30385C91.1936 5.10686 91.722 5.06051 92.2283 5.17108C92.7346 5.28165 93.1944 5.5438 93.5455 5.92203V5.95964ZM93.9375 27.3963H89.5241V12.165H93.9501L93.9375 27.3963Z" fill="#00447F"/>
<path d="M109.201 26.6693C107.873 27.3453 106.394 27.6774 104.901 27.6345C103.854 27.6685 102.81 27.4929 101.832 27.1182C100.854 26.7434 99.9629 26.1771 99.2108 25.4533C98.465 24.7198 97.8809 23.8408 97.4956 22.8718C97.1103 21.9029 96.9322 20.8653 96.9725 19.8246C96.9424 17.722 97.7462 15.6918 99.2108 14.1708C99.9947 13.4081 100.93 12.8158 101.958 12.4316C102.986 12.0474 104.083 11.8798 105.18 11.9394C106.566 11.8838 107.945 12.1589 109.201 12.7417V16.5025C108.128 15.8408 106.886 15.4972 105.622 15.5121C105.075 15.4887 104.528 15.573 104.014 15.7602C103.499 15.9474 103.027 16.2337 102.625 16.6028C102.222 17.0245 101.91 17.5232 101.708 18.0685C101.505 18.6138 101.417 19.1943 101.449 19.7744C101.469 20.9337 101.919 22.045 102.714 22.8959C103.088 23.2685 103.537 23.5591 104.031 23.7491C104.525 23.9391 105.055 24.0243 105.584 23.9991C106.882 23.9927 108.152 23.6281 109.252 22.946L109.201 26.6693Z" fill="#00447F"/>
<path d="M116.346 27.3963H111.92V6.67413H116.346V19.0096L121.138 12.1649H126.197L120.873 19.4609L126.298 27.3837H121.24L116.333 19.8621L116.346 27.3963Z" fill="#00447F"/>
<path d="M138.994 22.7706C139.029 23.4392 138.899 24.1062 138.615 24.7136C138.33 25.3209 137.901 25.8503 137.363 26.2556C136.101 27.1368 134.58 27.5777 133.038 27.5092C131.431 27.5633 129.834 27.2457 128.372 26.5815V22.6828C129.658 23.6116 131.207 24.1159 132.798 24.1245C133.911 24.1245 134.467 23.7735 134.467 23.0714C134.467 22.8893 134.415 22.7109 134.315 22.5575C134.181 22.3689 134.003 22.2144 133.797 22.1062C133.58 21.978 133.356 21.8608 133.127 21.7552L132.254 21.3791L131.382 20.9905C130.486 20.667 129.713 20.0787 129.165 19.3052C128.618 18.5317 128.323 17.6103 128.321 16.6655C128.289 15.9987 128.425 15.3345 128.717 14.7327C129.008 14.1309 129.446 13.6104 129.991 13.2181C131.234 12.3586 132.724 11.919 134.24 11.9645C135.579 11.9242 136.913 12.1369 138.172 12.5913V16.3521C137.016 15.7067 135.705 15.386 134.379 15.4244C133.934 15.3858 133.488 15.4962 133.114 15.7378C132.985 15.8258 132.879 15.9437 132.807 16.0813C132.734 16.219 132.696 16.3722 132.697 16.5276C132.696 16.7099 132.749 16.8885 132.849 17.0416C132.979 17.2292 133.152 17.3838 133.354 17.4929L134.025 17.869C134.235 17.9776 134.526 18.1113 134.897 18.2701C135.277 18.4331 135.567 18.571 135.795 18.6964C136.637 19.1131 137.395 19.678 138.033 20.3636C138.651 21.0153 138.995 21.8762 138.994 22.7706V22.7706Z" fill="#00447F"/>
</svg>
